Coordinates
version=1
nRows=17
nColumns=63
inDegrees=yes

Units are S.I. units (second, meters, Newtons, ...)
If the header above contains a line with 'inDegrees', this indicates whether rotational values are in degrees (yes) or radians (no).

endheader
time	pelvis_tilt	pelvis_list	pelvis_rotation	pelvis_tx	pelvis_ty	pelvis_tz	hip_flexion_r	hip_adduction_r	hip_rotation_r	knee_angle_r	knee_angle_r_beta	ankle_angle_r	subtalar_angle_r	mtp_angle_r	hip_flexion_l	hip_adduction_l	hip_rotation_l	knee_angle_l	knee_angle_l_beta	ankle_angle_l	subtalar_angle_l	mtp_angle_l	L5_S1_Flex_Ext	L5_S1_Lat_Bending	L5_S1_axial_rotation	L4_L5_Flex_Ext	L4_L5_Lat_Bending	L4_L5_axial_rotation	L3_L4_Flex_Ext	L3_L4_Lat_Bending	L3_L4_axial_rotation	L2_L3_Flex_Ext	L2_L3_Lat_Bending	L2_L3_axial_rotation	L1_L2_Flex_Ext	L1_L2_Lat_Bending	L1_L2_axial_rotation	L1_T12_Flex_Ext	L1_T12_Lat_Bending	L1_T12_axial_rotation	Abs_r3	Abs_r2	Abs_r1	Abs_t1	Abs_t2	neck_flexion	neck_bending	neck_rotation	arm_flex_r	arm_add_r	arm_rot_r	elbow_flex_r	pro_sup_r	wrist_flex_r	wrist_dev_r	arm_flex_l	arm_add_l	arm_rot_l	elbow_flex_l	pro_sup_l	wrist_flex_l	wrist_dev_l
6.254237	-5.309908	-6.978697	59.214475	0.294226	0.350200	0.968596	6.951702	2.981005	22.130166	6.981934	0.121858	22.706932	-12.113010	0.000000	5.915820	-3.663146	-12.325620	10.387434	0.181295	33.328888	1.110053	0.000000	-0.244045	1.104797	-0.340976	-0.453216	1.469379	-0.362287	-0.400942	2.686202	-0.362287	-0.278919	2.686202	-0.298354	-0.226620	2.252901	-0.277043	-0.139447	1.711330	-0.255732	-1.743189	12.497679	-1.896408	0.000000	0.000000	6.969584	0.522126	-8.764986	-1.579418	-19.145721	8.648244	127.069140	88.941176	-9.259345	16.095043	-21.519491	-18.127043	7.276652	124.151505	85.196076	-12.171029	1.431183
6.271186	-5.369266	-7.026484	59.336650	0.293826	0.349980	0.969069	7.154275	2.955934	21.899558	7.214789	0.125922	22.777495	-11.956268	0.000000	6.110918	-3.635322	-12.159958	10.395091	0.181429	33.498403	0.975792	0.000000	-0.240667	1.090696	-0.397305	-0.446944	1.450626	-0.422136	-0.395393	2.651918	-0.422136	-0.275059	2.651918	-0.347642	-0.223484	2.224147	-0.322810	-0.137517	1.689488	-0.297979	-1.719064	12.338171	-2.209690	0.000000	0.000000	7.035556	0.234212	-8.901893	-1.971149	-18.920342	8.223396	127.059440	88.822299	-9.023548	17.332169	-22.499101	-17.253750	5.971392	124.586673	85.120722	-11.390994	3.125229
6.288136	-5.413381	-7.078215	59.536206	0.293396	0.349782	0.969512	7.317005	2.934166	21.776207	7.377936	0.128769	22.789346	-11.962731	0.000000	6.302928	-3.630833	-12.111713	10.399958	0.181514	33.662684	1.025703	0.000000	-0.234569	1.077822	-0.475650	-0.435619	1.433504	-0.505378	-0.385374	2.620617	-0.505378	-0.268089	2.620617	-0.416193	-0.217821	2.197895	-0.386465	-0.134033	1.669547	-0.356737	-1.675505	12.192540	-2.645420	0.000000	0.000000	7.163202	-0.023317	-8.908196	-2.057091	-18.724392	7.947963	126.954598	88.732862	-8.779069	18.671296	-23.411521	-16.514306	4.894323	124.983692	85.175772	-11.366492	4.219768
6.305085	-5.439171	-7.128323	59.807632	0.292934	0.349625	0.969913	7.429409	2.915188	21.721255	7.468193	0.130345	22.745544	-12.096485	0.000000	6.483082	-3.644564	-12.131966	10.402294	0.181554	33.805689	1.192186	0.000000	-0.226717	1.065307	-0.566152	-0.421037	1.416859	-0.601536	-0.372474	2.590188	-0.601536	-0.259115	2.590188	-0.495383	-0.210530	2.172375	-0.459998	-0.129546	1.650161	-0.424614	-1.619419	12.050969	-3.148767	0.000000	0.000000	7.361359	-0.195254	-8.858360	-1.921085	-18.557302	7.757135	126.762749	88.657623	-8.586477	19.902049	-24.223985	-15.907002	3.921357	125.350821	85.335202	-11.403851	5.045848
6.322034	-5.450364	-7.169995	60.138838	0.292454	0.349519	0.970249	7.486416	2.894834	21.725590	7.492134	0.130762	22.649837	-12.352725	0.000000	6.640914	-3.668465	-12.221574	10.395716	0.181439	33.934674	1.477270	0.000000	-0.217797	1.052362	-0.660734	-0.404470	1.399642	-0.702029	-0.357818	2.558714	-0.702029	-0.248920	2.558714	-0.578142	-0.202246	2.145977	-0.536846	-0.124449	1.630109	-0.495550	-1.555701	11.904534	-3.674802	0.000000	0.000000	7.622766	-0.259494	-8.783470	-1.651874	-18.408151	7.575411	126.514269	88.596812	-8.398906	20.919119	-24.893906	-15.489802	3.124444	125.662972	85.577304	-11.564320	5.567394
6.338983	-5.447541	-7.196280	60.513683	0.291981	0.349472	0.970487	7.472443	2.875785	21.859178	7.440601	0.129863	22.469714	-12.837112	0.000000	6.758364	-3.693305	-12.330707	10.359998	0.180816	34.046935	1.818736	0.000000	-0.208964	1.038699	-0.751881	-0.388067	1.381470	-0.798874	-0.343307	2.525493	-0.798874	-0.238825	2.525493	-0.657896	-0.194044	2.118115	-0.610903	-0.119402	1.608945	-0.563911	-1.492608	11.749970	-4.181737	0.000000	0.000000	7.927594	-0.236894	-8.736860	-1.323062	-18.281329	7.357319	126.263866	88.549075	-8.233318	21.703359	-25.402882	-15.284810	2.532717	125.902168	85.891569	-11.821999	5.749806
6.355932	-5.441643	-7.216206	60.883977	0.291530	0.349473	0.970653	7.430697	2.850779	21.920129	7.365161	0.128546	22.306427	-13.219447	0.000000	6.845424	-3.721545	-12.556240	10.300656	0.179780	34.163949	2.304171	0.000000	-0.199432	1.024488	-0.829502	-0.370365	1.362569	-0.881346	-0.327647	2.490941	-0.881346	-0.227931	2.490941	-0.725814	-0.185192	2.089137	-0.673970	-0.113955	1.586932	-0.622127	-1.424522	11.589217	-4.613441	0.000000	0.000000	8.245114	-0.149534	-8.722371	-0.975194	-18.199309	7.090836	126.043433	88.515576	-8.104311	22.200040	-25.750820	-15.275475	2.128206	126.070146	86.280231	-12.139128	5.662966
6.372881	-5.434137	-7.212979	61.235250	0.291103	0.349527	0.970740	7.357547	2.810949	21.819184	7.288863	0.127215	22.210683	-13.382721	0.000000	6.880795	-3.730331	-12.776110	10.205046	0.178112	34.263172	2.768118	0.000000	-0.192476	1.008737	-0.889714	-0.357447	1.341621	-0.945321	-0.316219	2.452644	-0.945321	-0.219981	2.452644	-0.778500	-0.178733	2.057017	-0.722893	-0.109981	1.562534	-0.667286	-1.374837	11.411039	-4.948323	0.000000	0.000000	8.562166	-0.024643	-8.783717	-0.633753	-18.166530	6.752702	125.880182	88.492104	-7.980450	22.431500	-25.943726	-15.428000	1.814838	126.199608	86.725821	-12.248405	5.473054
6.389831	-5.437961	-7.204681	61.523772	0.290714	0.349608	0.970779	7.280456	2.758322	21.621328	7.214741	0.125921	22.159362	-13.374638	0.000000	6.877750	-3.722105	-13.050454	10.068952	0.175736	34.339386	3.268009	0.000000	-0.185980	0.992290	-0.928020	-0.345384	1.319745	-0.986022	-0.305547	2.412653	-0.986022	-0.212557	2.412653	-0.812018	-0.172701	2.023477	-0.754016	-0.106269	1.537057	-0.696015	-1.328439	11.224980	-5.161370	0.000000	0.000000	8.868549	0.092778	-8.898725	-0.281155	-18.219860	6.403454	125.781103	88.459714	-7.930582	22.411342	-26.003181	-15.688290	1.577011	126.305585	87.192263	-12.341300	5.160265
6.406780	-5.459269	-7.195518	61.740718	0.290374	0.349691	0.970763	7.203557	2.689544	21.357837	7.135954	0.124546	22.158040	-13.218325	0.000000	6.835646	-3.690314	-13.363397	9.884772	0.172522	34.386503	3.786453	0.000000	-0.178793	0.974700	-0.944707	-0.332037	1.296351	-1.003751	-0.293740	2.369885	-1.003751	-0.204343	2.369885	-0.826619	-0.166027	1.987608	-0.767574	-0.102162	1.509810	-0.708530	-1.277103	11.026000	-5.254177	0.000000	0.000000	9.185768	0.216139	-9.056743	0.100961	-18.368336	6.080187	125.744784	88.398421	-7.997087	22.203035	-25.939998	-16.025951	1.358563	126.432387	87.608029	-12.374305	4.874240
6.423729	-5.497478	-7.166602	61.871734	0.290057	0.349794	0.970734	7.118161	2.595505	21.040126	7.061066	0.123239	22.214807	-12.905415	0.000000	6.743299	-3.621882	-13.691962	9.664053	0.168670	34.385020	4.261322	0.000000	-0.173971	0.955701	-0.937046	-0.323082	1.271082	-0.995611	-0.285817	2.323691	-0.995611	-0.198832	2.323691	-0.819915	-0.161550	1.948865	-0.761350	-0.099407	1.480381	-0.702784	-1.242658	10.811079	-5.211569	0.000000	0.000000	9.534884	0.317877	-9.246789	0.570069	-18.626697	5.821613	125.755803	88.304203	-8.209005	21.899499	-25.737544	-16.409106	1.116664	126.619760	87.879066	-12.319795	4.823257
6.440678	-5.554737	-7.123902	61.927406	0.289761	0.349899	0.970693	7.026217	2.476434	20.703808	6.981502	0.121850	22.312525	-12.486532	0.000000	6.611309	-3.517439	-14.017145	9.410911	0.164251	34.335374	4.684786	0.000000	-0.169026	0.935446	-0.908206	-0.313898	1.244144	-0.964969	-0.277693	2.274444	-0.964969	-0.193180	2.274444	-0.794680	-0.156957	1.907562	-0.737917	-0.096581	1.449006	-0.681154	-1.207335	10.581956	-5.051169	0.000000	0.000000	9.924189	0.411741	-9.435101	1.151082	-18.991763	5.656651	125.785667	88.177387	-8.559145	21.526007	-25.410985	-16.807290	0.806798	126.880215	87.966496	-12.127862	5.061909
6.457627	-5.630803	-7.071593	61.916699	0.289481	0.350001	0.970658	6.928277	2.336014	20.394789	6.891449	0.120278	22.421651	-12.022164	0.000000	6.449400	-3.380752	-14.335503	9.128666	0.159325	34.248071	5.054903	0.000000	-0.163596	0.913848	-0.863919	-0.303815	1.215418	-0.917913	-0.268773	2.221930	-0.917913	-0.186974	2.221930	-0.755929	-0.151916	1.863519	-0.701934	-0.093479	1.415550	-0.647939	-1.168553	10.337631	-4.804856	0.000000	0.000000	10.383801	0.509849	-9.613104	1.868289	-19.453327	5.612451	125.802315	88.023644	-8.995327	21.075052	-25.002922	-17.194701	0.387017	127.228606	87.853978	-11.782142	5.580934
6.474576	-5.720057	-6.994795	61.876571	0.289184	0.350135	0.970627	6.806264	2.171025	20.098612	6.793651	0.118572	22.511887	-11.551269	0.000000	6.255944	-3.208085	-14.599896	8.833990	0.154182	34.137170	5.355844	0.000000	-0.159827	0.890759	-0.809331	-0.296814	1.184709	-0.859914	-0.262579	2.165790	-0.859914	-0.182666	2.165790	-0.708165	-0.148415	1.816435	-0.657582	-0.091325	1.379785	-0.606998	-1.141626	10.076439	-4.501258	0.000000	0.000000	10.902109	0.640052	-9.735392	2.703128	-19.982555	5.662254	125.774368	87.852573	-9.437184	20.475175	-24.513229	-17.572768	-0.145414	127.635294	87.466736	-11.200434	6.345740
6.491525	-5.838002	-6.912228	61.787061	0.288928	0.350264	0.970674	6.701338	1.989704	19.892020	6.716532	0.117226	22.569156	-11.147103	0.000000	6.060220	-3.011250	-14.940501	8.533335	0.148935	34.027308	5.725229	0.000000	-0.155350	0.864841	-0.747231	-0.288500	1.150239	-0.793933	-0.255224	2.102774	-0.793933	-0.177549	2.102774	-0.653827	-0.144258	1.763584	-0.607125	-0.088767	1.339639	-0.560424	-1.109648	9.783254	-4.155877	0.000000	0.000000	11.451894	0.773989	-9.827899	3.686524	-20.523994	5.815425	125.735615	87.654936	-9.828389	20.112508	-24.000091	-17.940793	-0.767340	128.148125	87.094623	-10.769845	7.412394
6.508475	-5.975214	-6.820724	61.734540	0.288633	0.350431	0.970753	6.601963	1.787490	19.632166	6.664151	0.116311	22.594038	-10.726096	0.000000	5.876151	-2.789327	-15.222037	8.248752	0.143968	33.897951	6.097318	0.000000	-0.150989	0.836710	-0.691542	-0.280402	1.112824	-0.734764	-0.248060	2.034376	-0.734764	-0.172566	2.034376	-0.605099	-0.140209	1.706218	-0.561878	-0.086275	1.296063	-0.518657	-1.078501	9.465026	-3.846150	0.000000	0.000000	11.994074	0.903460	-9.906680	4.783332	-21.043299	6.016101	125.668916	87.451344	-10.061202	19.910519	-23.467750	-18.264802	-1.503185	128.685930	86.651301	-10.224927	8.550493
6.525424	-6.123834	-6.725627	61.700041	0.288378	0.350633	0.970900	6.507831	1.583795	19.458536	6.631968	0.115750	22.526861	-10.467100	0.000000	5.704521	-2.562179	-15.517180	7.985993	0.139382	33.759673	6.534484	0.000000	-0.146951	0.806947	-0.648465	-0.272903	1.073239	-0.688994	-0.241426	1.962010	-0.688994	-0.167950	1.962010	-0.567406	-0.136459	1.645525	-0.526877	-0.083968	1.249960	-0.486348	-1.049656	9.128340	-3.606565	0.000000	0.000000	12.493842	1.035508	-9.929225	6.018486	-21.485190	6.292096	125.543252	87.230827	-10.101092	19.915722	-22.979490	-18.544954	-2.389259	129.265995	86.071286	-9.634305	9.771824
